<svg width="40" height="40" viewBox="0 0 100 100" fill="none" xmlns="http://www.w3.org/2000/svg">
<path d="M73.9564 37.5016C73.3797 35.3321 71.6862 33.6294 69.535 33.0527C65.6353 32 50 32 50 32C50 32 34.3647 32 30.465 33.0527C28.3138 33.6294 26.6203 35.3321 26.0436 37.5016C25 41.4288 25 49.6126 25 49.6126C25 49.6126 25 57.7964 26.0436 61.7235C26.6203 63.8931 28.3138 65.5225 30.465 66.0992C34.3647 67.152 50 67.152 50 67.152C50 67.152 65.6353 67.152 69.535 66.0992C71.6862 65.5225 73.3797 63.8839 73.9564 61.7235C75 57.7964 75 49.6126 75 49.6126C75 49.6126 75 41.4288 73.9564 37.5016ZM44.892 57.0458V42.1794L57.955 49.6126L44.892 57.0458Z" fill="#2F4858"/>
</svg>
